# xmcd
#
# Track frame offsets: 
#        150
#        13766
#        31009
#        44726
#        58463
#        74034
#        87870
#        105369
#        124701
#        135624
#        150327
#        164957
#        180428
#
# Disc length: 2624 seconds
#
# Revision: 0
# Processed by: cddbd v1.5PL3 Copyright (c) Steve Scherf et al.
# Submitted via: ExactAudioCopy v0.95a5
#
DISCID=b20a3e0d
DTITLE=Bert Wills - Special Sessions
DYEAR=1996
DGENRE=
TTITLE0=Stoked '96
TTITLE1=One of the Lost
TTITLE2=Willie Mae
TTITLE3=Day After Day
TTITLE4=Fool For You
TTITLE5=Cryin' Don't Help
TTITLE6=Bad News #2
TTITLE7=Special Session
TTITLE8=Easy Does It
TTITLE9=B.L.&T.
TTITLE10=Halt
TTITLE11=You Gotta Rock
TTITLE12=Always
EXTD=
EXTT0=
EXTT1=
EXTT2=
EXTT3=
EXTT4=
EXTT5=
EXTT6=
EXTT7=
EXTT8=
EXTT9=
EXTT10=
EXTT11=
EXTT12=
PLAYORDER=
